<svg width="42" height="42" viewBox="0 0 42 42" fill="none" xmlns="http://www.w3.org/2000/svg">
<path d="M42 21C42 32.598 32.598 42 21 42C9.40202 42 0 32.598 0 21C0 9.40202 9.40202 0 21 0C32.598 0 42 9.40202 42 21Z" fill="white"/>
<path opacity="0.4" d="M29.8691 18.248C29.7858 18.2361 29.7024 18.2361 29.6191 18.248C27.7739 18.1884 26.3096 16.6765 26.3096 14.8194C26.3096 12.9265 27.8453 11.3789 29.75 11.3789C31.6429 11.3789 33.1905 12.9146 33.1905 14.8194C33.1786 16.6765 31.7143 18.1884 29.8691 18.248Z" fill="#01A3C7"/>
<path opacity="0.4" d="M33.7498 26.5005C32.4165 27.3933 30.5474 27.7267 28.8212 27.5005C29.2736 26.5243 29.5117 25.441 29.5236 24.2981C29.5236 23.1076 29.2617 21.9767 28.7617 20.9886C30.5236 20.7505 32.3927 21.0838 33.7379 21.9767C35.6189 23.2148 35.6189 25.2505 33.7498 26.5005Z" fill="#01A3C7"/>
<path opacity="0.4" d="M16.6666 18.248C16.75 18.2361 16.8333 18.2361 16.9166 18.248C18.7619 18.1884 20.2262 16.6765 20.2262 14.8194C20.2262 12.9265 18.6905 11.3789 16.7857 11.3789C14.8928 11.3789 13.3452 12.9146 13.3452 14.8194C13.3571 16.6765 14.8214 18.1884 16.6666 18.248Z" fill="#01A3C7"/>
<path opacity="0.4" d="M16.7976 24.2983C16.7976 25.4531 17.0476 26.5483 17.5 27.5364C15.8214 27.715 14.0714 27.3579 12.7857 26.5126C10.9048 25.2626 10.9048 23.2269 12.7857 21.9769C14.0595 21.1197 15.8571 20.7745 17.5476 20.965C17.0595 21.965 16.7976 23.0959 16.7976 24.2983Z" fill="#01A3C7"/>
<path d="M23.4287 27.8934C23.3335 27.8815 23.2263 27.8815 23.1192 27.8934C20.9287 27.822 19.1787 26.0244 19.1787 23.8101C19.1787 21.5482 21.0001 19.7148 23.274 19.7148C25.5359 19.7148 27.3692 21.5482 27.3692 23.8101C27.3692 26.0244 25.6311 27.822 23.4287 27.8934Z" fill="#01A3C7"/>
<path d="M19.5596 30.3588C17.762 31.5612 17.762 33.5374 19.5596 34.7279C21.6073 36.0969 24.9644 36.0969 27.012 34.7279C28.8096 33.5255 28.8096 31.5493 27.012 30.3588C24.9763 28.9898 21.6192 28.9898 19.5596 30.3588Z" fill="#01A3C7"/>
</svg>
